<svg xmlns="http://www.w3.org/2000/svg" version="1.1" xmlns:xlink="http://www.w3.org/1999/xlink" xmlns:svgjs="http://svgjs.dev/svgjs" width="700" height="500"><svg class="main-svg" xmlns="http://www.w3.org/2000/svg" xmlns:xlink="http://www.w3.org/1999/xlink" width="700" height="500" style="" viewBox="0 0 700 500"><rect x="0" y="0" width="700" height="500" style="fill: rgb(255, 255, 255); fill-opacity: 1;"></rect><defs id="SvgjsDefs1479"><g class="clips"><clipPath id="SvgjsClipPath1478"><path d="M165.24791385931977,420h369.50417228136047l-184.75208614068023,-320Z"></path></clipPath><clipPath id="SvgjsClipPath1477"><path d="M0,320h369.50417228136047l-184.75208614068023,-320Z"></path></clipPath></g><g class="gradients"></g><g class="patterns"></g></defs><g class="bglayer"></g><g class="layer-below"><g class="imagelayer"></g><g class="shapelayer"></g></g><g class="cartesianlayer"></g><g class="polarlayer"></g><g class="smithlayer"></g><g class="ternarylayer"><g class="ternary"><g class="toplevel draglayer" style="cursor: crosshair;"></g><g class="toplevel plotbg" style="cursor: crosshair;"><path d="M165.24791385931977,420h369.50417228136047l-184.75208614068023,-320Z" style="fill: rgb(229, 236, 246); fill-opacity: 1;"></path></g><g class="toplevel backplot" clip-path="url(#clip3e9df8ternary)" style="cursor: crosshair;"><g class="maplayer" transform="translate(165.24791385931977,100)"></g></g><g class="toplevel grids" clip-path="url(#clip3e9df8ternary)" style="cursor: crosshair;"><g class="grid agrid" transform="translate(350,100)rotate(30)translate(0,-50.49582771863953)"><path class="ygrid" transform="translate(0,346.09582771863955)" d="M0,0l320,-184.75208614068023" style="stroke: rgb(255, 255, 255); stroke-opacity: 1; stroke-width: 1px;"></path><path class="ygrid" transform="translate(0,272.1958277186395)" d="M0,0l320,-184.75208614068023" style="stroke: rgb(255, 255, 255); stroke-opacity: 1; stroke-width: 1px;"></path><path class="ygrid" transform="translate(0,198.29582771863954)" d="M0,0l320,-184.75208614068023" style="stroke: rgb(255, 255, 255); stroke-opacity: 1; stroke-width: 1px;"></path><path class="ygrid" transform="translate(0,124.39582771863954)" d="M0,0l320,-184.75208614068023" style="stroke: rgb(255, 255, 255); stroke-opacity: 1; stroke-width: 1px;"></path></g><g class="grid bgrid" transform="translate(2.842170943040401e-14,420)"><path class="xgrid" transform="translate(239.14791385931974,0)" d="M0,0l-184.75208614068023,-320" style="stroke: rgb(255, 255, 255); stroke-opacity: 1; stroke-width: 1px;"></path><path class="xgrid" transform="translate(313.04791385931975,0)" d="M0,0l-184.75208614068023,-320" style="stroke: rgb(255, 255, 255); stroke-opacity: 1; stroke-width: 1px;"></path><path class="xgrid" transform="translate(386.9479138593197,0)" d="M0,0l-184.75208614068023,-320" style="stroke: rgb(255, 255, 255); stroke-opacity: 1; stroke-width: 1px;"></path><path class="xgrid" transform="translate(460.84791385931976,0)" d="M0,0l-184.75208614068023,-320" style="stroke: rgb(255, 255, 255); stroke-opacity: 1; stroke-width: 1px;"></path></g><g class="grid cgrid" transform="translate(350,100)rotate(-30)translate(0,-50.49582771863953)"><path class="ygrid" transform="translate(0,346.09582771863955)" d="M0,0l-320,184.75208614068023" style="stroke: rgb(255, 255, 255); stroke-opacity: 1; stroke-width: 1px;"></path><path class="ygrid" transform="translate(0,272.1958277186395)" d="M0,0l-320,184.75208614068023" style="stroke: rgb(255, 255, 255); stroke-opacity: 1; stroke-width: 1px;"></path><path class="ygrid" transform="translate(0,198.29582771863954)" d="M0,0l-320,184.75208614068023" style="stroke: rgb(255, 255, 255); stroke-opacity: 1; stroke-width: 1px;"></path><path class="ygrid" transform="translate(0,124.39582771863954)" d="M0,0l-320,184.75208614068023" style="stroke: rgb(255, 255, 255); stroke-opacity: 1; stroke-width: 1px;"></path></g></g><g class="toplevel frontplot" clip-path="url(#clip3e9df8ternary)" style="cursor: crosshair;"><g class="scatterlayer" transform="translate(165.24791385931977,100)"><g class="trace scatter trace715aac" style="stroke-miterlimit: 2; opacity: 1;"><g class="fills"></g><g class="errorbars"></g><g class="lines"><path class="js-line" d="M369.5,320L365.77,313.6L362.04,307.33L358.31,301.19L354.57,295.19L350.84,289.31L347.11,283.56L343.38,277.95L339.65,272.46L335.91,267.11L332.18,261.88L328.45,256.79L324.72,251.83L320.98,247L317.25,242.29L313.52,237.72L309.79,233.28L306.05,228.97L302.32,224.79L298.59,220.74L294.86,216.83L291.12,213.04L287.39,209.38L283.66,205.86L279.93,202.46L276.2,199.2L272.46,196.06L268.73,193.06L265,190.18L261.27,187.44L257.53,184.83L253.8,182.35L250.07,180L246.34,177.78L242.6,175.69L238.87,173.73L235.14,171.9L231.41,170.2L227.67,168.64L223.94,167.2L220.21,165.89L216.48,164.72L212.74,163.67L209.01,162.76L205.28,161.98L201.55,161.32L197.82,160.8L194.08,160.41L190.35,160.15L186.62,160.02L182.89,160.02L179.15,160.15L175.42,160.41L171.69,160.8L167.96,161.32L164.22,161.98L160.49,162.76L156.76,163.67L153.03,164.72L149.29,165.89L145.56,167.2L141.83,168.64L138.1,170.2L134.37,171.9L130.63,173.73L126.9,175.69L123.17,177.78L119.44,180L115.7,182.35L111.97,184.83L108.24,187.44L104.51,190.18L100.77,193.06L97.04,196.06L93.31,199.2L89.58,202.46L85.84,205.86L82.11,209.38L78.38,213.04L74.65,216.83L70.91,220.74L67.18,224.79L63.45,228.97L59.72,233.28L55.99,237.72L52.25,242.29L48.52,247L44.79,251.83L41.06,256.79L37.32,261.88L33.59,267.11L29.86,272.46L26.13,277.95L22.39,283.56L18.66,289.31L14.93,295.19L11.2,301.19L7.46,307.33L3.73,313.6L0,320" style="vector-effect: none; fill: none; stroke: rgb(0, 0, 255); stroke-opacity: 1; stroke-width: 2px; opacity: 1;"></path></g><g class="points"></g><g class="text"></g></g><g class="trace scatter trace2cbedc" style="stroke-miterlimit: 2; opacity: 1;"><g class="fills"></g><g class="errorbars"></g><g class="lines"></g><g class="points"><path class="point" transform="translate(169.05,163.52)" d="M5,0A5,5 0 1,1 0,-5A5,5 0 0,1 5,0Z" style="opacity: 1; stroke-width: 0px; fill: rgb(255, 0, 0); fill-opacity: 1;"></path></g><g class="text"></g></g></g></g><g class="toplevel aaxis" transform="translate(350,100)rotate(30)translate(0,-50.49582771863953)" style="cursor: crosshair;"><g class="ytick"><text text-anchor="end" x="-2.9000000000000004" y="4.199999999999999" transform="translate(0,419.99582771863953) rotate(-30,-2.9000000000000004,-1.8000000000000007)" style="font-family: 'Open Sans', verdana, arial, sans-serif; font-size: 12px; fill: rgb(42, 63, 95); fill-opacity: 1; white-space: pre; opacity: 1;" svgjs:data="{&quot;leading&quot;:&quot;1.3&quot;}">0</text></g><g class="ytick"><text text-anchor="end" x="-2.9000000000000004" y="4.199999999999999" transform="translate(0,346.09582771863955) rotate(-30,-2.9000000000000004,-1.8000000000000007)" style="font-family: 'Open Sans', verdana, arial, sans-serif; font-size: 12px; fill: rgb(42, 63, 95); fill-opacity: 1; white-space: pre; opacity: 1;" svgjs:data="{&quot;leading&quot;:&quot;1.3&quot;}">0.2</text></g><g class="ytick"><text text-anchor="end" x="-2.9000000000000004" y="4.199999999999999" transform="translate(0,272.1958277186395) rotate(-30,-2.9000000000000004,-1.8000000000000007)" style="font-family: 'Open Sans', verdana, arial, sans-serif; font-size: 12px; fill: rgb(42, 63, 95); fill-opacity: 1; white-space: pre; opacity: 1;" svgjs:data="{&quot;leading&quot;:&quot;1.3&quot;}">0.4</text></g><g class="ytick"><text text-anchor="end" x="-2.9000000000000004" y="4.199999999999999" transform="translate(0,198.29582771863954) rotate(-30,-2.9000000000000004,-1.8000000000000007)" style="font-family: 'Open Sans', verdana, arial, sans-serif; font-size: 12px; fill: rgb(42, 63, 95); fill-opacity: 1; white-space: pre; opacity: 1;" svgjs:data="{&quot;leading&quot;:&quot;1.3&quot;}">0.6</text></g><g class="ytick"><text text-anchor="end" x="-2.9000000000000004" y="4.199999999999999" transform="translate(0,124.39582771863954) rotate(-30,-2.9000000000000004,-1.8000000000000007)" style="font-family: 'Open Sans', verdana, arial, sans-serif; font-size: 12px; fill: rgb(42, 63, 95); fill-opacity: 1; white-space: pre; opacity: 1;" svgjs:data="{&quot;leading&quot;:&quot;1.3&quot;}">0.8</text></g><g class="ytick"><text text-anchor="end" x="-2.9000000000000004" y="4.199999999999999" transform="translate(0,50.49582771863953) rotate(-30,-2.9000000000000004,-1.8000000000000007)" style="font-family: 'Open Sans', verdana, arial, sans-serif; font-size: 12px; fill: rgb(42, 63, 95); fill-opacity: 1; white-space: pre; opacity: 1;" svgjs:data="{&quot;leading&quot;:&quot;1.3&quot;}">1</text></g></g><g class="toplevel aline" style="cursor: crosshair;"><path d="M165.24791385931977,420l184.75208614068023,-320" style="stroke: rgb(255, 255, 255); stroke-opacity: 1; stroke-width: 1px;"></path></g><g class="toplevel baxis" transform="translate(2.842170943040401e-14,420)" style="cursor: crosshair;"><g class="xtick"><text text-anchor="middle" x="0" y="14.9" transform="translate(165.24791385931974,0)" style="font-family: 'Open Sans', verdana, arial, sans-serif; font-size: 12px; fill: rgb(42, 63, 95); fill-opacity: 1; white-space: pre; opacity: 1;" svgjs:data="{&quot;leading&quot;:&quot;1.3&quot;}">1</text></g><g class="xtick"><text text-anchor="middle" x="0" y="14.9" transform="translate(239.14791385931974,0)" style="font-family: 'Open Sans', verdana, arial, sans-serif; font-size: 12px; fill: rgb(42, 63, 95); fill-opacity: 1; white-space: pre; opacity: 1;" svgjs:data="{&quot;leading&quot;:&quot;1.3&quot;}">0.8</text></g><g class="xtick"><text text-anchor="middle" x="0" y="14.9" transform="translate(313.04791385931975,0)" style="font-family: 'Open Sans', verdana, arial, sans-serif; font-size: 12px; fill: rgb(42, 63, 95); fill-opacity: 1; white-space: pre; opacity: 1;" svgjs:data="{&quot;leading&quot;:&quot;1.3&quot;}">0.6</text></g><g class="xtick"><text text-anchor="middle" x="0" y="14.9" transform="translate(386.9479138593197,0)" style="font-family: 'Open Sans', verdana, arial, sans-serif; font-size: 12px; fill: rgb(42, 63, 95); fill-opacity: 1; white-space: pre; opacity: 1;" svgjs:data="{&quot;leading&quot;:&quot;1.3&quot;}">0.4</text></g><g class="xtick"><text text-anchor="middle" x="0" y="14.9" transform="translate(460.84791385931976,0)" style="font-family: 'Open Sans', verdana, arial, sans-serif; font-size: 12px; fill: rgb(42, 63, 95); fill-opacity: 1; white-space: pre; opacity: 1;" svgjs:data="{&quot;leading&quot;:&quot;1.3&quot;}">0.2</text></g><g class="xtick"><text text-anchor="middle" x="0" y="14.9" transform="translate(534.7479138593197,0)" style="font-family: 'Open Sans', verdana, arial, sans-serif; font-size: 12px; fill: rgb(42, 63, 95); fill-opacity: 1; white-space: pre; opacity: 1;" svgjs:data="{&quot;leading&quot;:&quot;1.3&quot;}">0</text></g></g><g class="toplevel bline" style="cursor: crosshair;"><path d="M165.24791385931977,420h369.50417228136047" style="stroke: rgb(255, 255, 255); stroke-opacity: 1; stroke-width: 1px;"></path></g><g class="toplevel caxis" transform="translate(350,100)rotate(-30)translate(0,-50.49582771863953)" style="cursor: crosshair;"><g class="ytick"><text text-anchor="start" x="2.9000000000000004" y="4.199999999999999" transform="translate(0,419.99582771863953) rotate(30,2.9000000000000004,-1.8000000000000007)" style="font-family: 'Open Sans', verdana, arial, sans-serif; font-size: 12px; fill: rgb(42, 63, 95); fill-opacity: 1; white-space: pre; opacity: 1;" svgjs:data="{&quot;leading&quot;:&quot;1.3&quot;}">1</text></g><g class="ytick"><text text-anchor="start" x="2.9000000000000004" y="4.199999999999999" transform="translate(0,346.09582771863955) rotate(30,2.9000000000000004,-1.8000000000000007)" style="font-family: 'Open Sans', verdana, arial, sans-serif; font-size: 12px; fill: rgb(42, 63, 95); fill-opacity: 1; white-space: pre; opacity: 1;" svgjs:data="{&quot;leading&quot;:&quot;1.3&quot;}">0.8</text></g><g class="ytick"><text text-anchor="start" x="2.9000000000000004" y="4.199999999999999" transform="translate(0,272.1958277186395) rotate(30,2.9000000000000004,-1.8000000000000007)" style="font-family: 'Open Sans', verdana, arial, sans-serif; font-size: 12px; fill: rgb(42, 63, 95); fill-opacity: 1; white-space: pre; opacity: 1;" svgjs:data="{&quot;leading&quot;:&quot;1.3&quot;}">0.6</text></g><g class="ytick"><text text-anchor="start" x="2.9000000000000004" y="4.199999999999999" transform="translate(0,198.29582771863954) rotate(30,2.9000000000000004,-1.8000000000000007)" style="font-family: 'Open Sans', verdana, arial, sans-serif; font-size: 12px; fill: rgb(42, 63, 95); fill-opacity: 1; white-space: pre; opacity: 1;" svgjs:data="{&quot;leading&quot;:&quot;1.3&quot;}">0.4</text></g><g class="ytick"><text text-anchor="start" x="2.9000000000000004" y="4.199999999999999" transform="translate(0,124.39582771863954) rotate(30,2.9000000000000004,-1.8000000000000007)" style="font-family: 'Open Sans', verdana, arial, sans-serif; font-size: 12px; fill: rgb(42, 63, 95); fill-opacity: 1; white-space: pre; opacity: 1;" svgjs:data="{&quot;leading&quot;:&quot;1.3&quot;}">0.2</text></g><g class="ytick"><text text-anchor="start" x="2.9000000000000004" y="4.199999999999999" transform="translate(0,50.49582771863953) rotate(30,2.9000000000000004,-1.8000000000000007)" style="font-family: 'Open Sans', verdana, arial, sans-serif; font-size: 12px; fill: rgb(42, 63, 95); fill-opacity: 1; white-space: pre; opacity: 1;" svgjs:data="{&quot;leading&quot;:&quot;1.3&quot;}">0</text></g></g><g class="toplevel cline" style="cursor: crosshair;"><path d="M350,100l184.75208614068023,320" style="stroke: rgb(255, 255, 255); stroke-opacity: 1; stroke-width: 1px;"></path></g></g></g><g class="geolayer"></g><g class="funnelarealayer"></g><g class="pielayer"></g><g class="iciclelayer"></g><g class="treemaplayer"></g><g class="sunburstlayer"></g><g class="glimages"></g><defs id="SvgjsDefs1476"><g class="clips"></g><clipPath id="SvgjsClipPath1475"><rect width="423" height="29" x="0" y="0"></rect></clipPath></defs><g class="layer-above"><g class="imagelayer"></g><g class="shapelayer"></g></g><g class="infolayer"><g class="legend" pointer-events="all" transform="translate(138.5,20)"><rect class="bg" shape-rendering="crispEdges" width="423" height="29" x="0" y="0" style="stroke: rgb(68, 68, 68); stroke-opacity: 1; fill: rgb(255, 255, 255); fill-opacity: 1; stroke-width: 0px;"></rect><g class="scrollbox" transform="" clip-path="url(#legend3e9df8)"><g class="groups"><g class="traces" transform="translate(0,14.5)" style="opacity: 1;"><text class="legendtext" text-anchor="start" x="40" y="4.680000000000001" style="font-family: 'Open Sans', verdana, arial, sans-serif; font-size: 12px; fill: rgb(42, 63, 95); fill-opacity: 1; white-space: pre;" svgjs:data="{&quot;leading&quot;:&quot;1.3&quot;}">Hardy-Weinberg Equilibrium Line</text><g class="layers" style="opacity: 1;"><g class="legendfill"></g><g class="legendlines"><path class="js-line" d="M5,0h30" style="fill: none; stroke: rgb(0, 0, 255); stroke-opacity: 1; stroke-width: 2px;"></path></g><g class="legendsymbols"><g class="legendpoints"></g></g></g><rect class="legendtoggle" x="0" y="-9.5" width="240.734375" height="19" style="fill: rgb(0, 0, 0); fill-opacity: 0;"></rect></g><g class="traces" transform="translate(243.234375,14.5)" style="opacity: 1;"><text class="legendtext" text-anchor="start" x="40" y="4.680000000000001" style="font-family: 'Open Sans', verdana, arial, sans-serif; font-size: 12px; fill: rgb(42, 63, 95); fill-opacity: 1; white-space: pre;" svgjs:data="{&quot;leading&quot;:&quot;1.3&quot;}">Observed Frequencies</text><g class="layers" style="opacity: 1;"><g class="legendfill"></g><g class="legendlines"></g><g class="legendsymbols"><g class="legendpoints"><path class="scatterpts" transform="translate(20,0)" d="M5,0A5,5 0 1,1 0,-5A5,5 0 0,1 5,0Z" style="opacity: 1; stroke-width: 0px; fill: rgb(255, 0, 0); fill-opacity: 1;"></path></g></g></g><rect class="legendtoggle" x="0" y="-9.5" width="176.46875" height="19" style="fill: rgb(0, 0, 0); fill-opacity: 0;"></rect></g></g></g><rect class="scrollbar" rx="20" ry="3" width="0" height="0" x="0" y="0" style="fill: rgb(128, 139, 164); fill-opacity: 1;"></rect></g><g class="g-gtitle"><text class="gtitle" x="350" y="475" text-anchor="middle" dy="0em" style="opacity: 1; font-family: 'Open Sans', verdana, arial, sans-serif; font-size: 17px; fill: rgb(42, 63, 95); fill-opacity: 1; white-space: pre;" svgjs:data="{&quot;leading&quot;:&quot;1.3&quot;}">Ternary plot for Hardy-Weinberg equilibrium test</text></g><g class="g-atitle"><text class="atitle" x="350" y="86.33333333333333" text-anchor="middle" style="opacity: 1; font-family: 'Open Sans', verdana, arial, sans-serif; font-size: 14px; fill: rgb(42, 63, 95); fill-opacity: 1; white-space: pre;" svgjs:data="{&quot;leading&quot;:&quot;1.3&quot;}">AB Frequency</text></g><g class="g-btitle"><text class="btitle" x="150.24791385931977" y="446.62" text-anchor="middle" style="opacity: 1; font-family: 'Open Sans', verdana, arial, sans-serif; font-size: 14px; fill: rgb(42, 63, 95); fill-opacity: 1; white-space: pre;" svgjs:data="{&quot;leading&quot;:&quot;1.3&quot;}">AA Frequency</text></g><g class="g-ctitle"><text class="ctitle" x="549.7520861406803" y="446.62" text-anchor="middle" style="opacity: 1; font-family: 'Open Sans', verdana, arial, sans-serif; font-size: 14px; fill: rgb(42, 63, 95); fill-opacity: 1; white-space: pre;" svgjs:data="{&quot;leading&quot;:&quot;1.3&quot;}">BB Frequency</text></g></g></svg><style>@media (prefers-color-scheme: light) { :root { filter: none; } }
@media (prefers-color-scheme: dark) { :root { filter: none; } }
</style></svg>